<svg width="370" height="218" viewBox="0 0 370 218" fill="none" xmlns="http://www.w3.org/2000/svg">
<path d="M370 0V218C370 218 363.838 206.634 359 200.932C349.008 189.158 341.039 188.571 329 183.089C318.453 178.287 312.214 177.589 301.5 173.779C288.574 169.184 280.372 170.531 268.5 161.367C258.64 153.755 255.76 142.904 246 134.989C237.735 128.287 232.61 125.668 223.5 122.577C208.049 117.333 198.615 126.479 183 122.577C171.163 119.618 162 110.939 153.5 109.388C145 107.836 162 109.388 127.5 89.2171C93 69.0463 102 44.6085 63.75 44.6085C25.5 44.6085 0 0 0 0H370Z" fill="#5C58BD" fill-opacity="0.1"/>
</svg>
