<svg width="24" height="24" viewBox="0 0 24 24" fill="none" xmlns="http://www.w3.org/2000/svg">
<path fill-rule="evenodd" clip-rule="evenodd" d="M3 4.06273V0H1V8H9V6H3.99915C5.82465 3.56964 8.72949 2 12 2C17.5229 2 22 6.47715 22 12C22 14.4111 21.148 16.6204 19.7277 18.3474L21.2723 19.6178C22.9762 17.5461 24 14.8913 24 12C24 5.37258 18.6274 0 12 0C8.41499 0 5.19798 1.57244 3 4.06273ZM16.3753 16.7809L11 12.4806L11 6L13 6L13 11.5194L17.6247 15.2191L16.3753 16.7809ZM0 11V13H2V11H0ZM1 18V16H3V18H1ZM5 22H7V20H5V22ZM13 24H11V22H13V24ZM17 22H19V20H17V22Z" fill="white"/>
</svg>
