<svg width="20" height="20" viewBox="0 0 20 20" fill="none" xmlns="http://www.w3.org/2000/svg">
<g id="Group 12770">
<g id="Icon">
<path d="M9 9.5C11.4853 9.5 13.5 7.48528 13.5 5C13.5 2.51472 11.4853 0.5 9 0.5C6.51472 0.5 4.5 2.51472 4.5 5C4.5 7.48528 6.51472 9.5 9 9.5Z" fill="white"/>
<path d="M11.5 13H6.5C5.10444 13 4.40665 13 3.83886 13.1722C2.56045 13.56 1.56004 14.5605 1.17224 15.8389C1 16.4067 1 17.1044 1 18.5M13.5 5C13.5 7.48528 11.4853 9.5 9 9.5C6.51472 9.5 4.5 7.48528 4.5 5C4.5 2.51472 6.51472 0.5 9 0.5C11.4853 0.5 13.5 2.51472 13.5 5Z" stroke="#36338C" stroke-linecap="round" stroke-linejoin="round"/>
</g>
<path id="Icon_2" d="M16 19.5C16 19.5 19 18.0701 19 15.9252V13.4229L16.8124 12.6412C16.2868 12.4529 15.712 12.4529 15.1864 12.6412L13 13.4229V15.9252C13 18.0701 16 19.5 16 19.5Z" fill="white" stroke="#36338C" stroke-linecap="round" stroke-linejoin="round"/>
</g>
</svg>
