<svg width="24" height="24" viewBox="0 0 24 24" fill="none" xmlns="http://www.w3.org/2000/svg">
<path d="M4 11.9999C3.99931 10.2383 4.58013 8.52568 5.6523 7.12788C6.72447 5.73008 8.22805 4.72526 9.92968 4.26936C11.6313 3.81346 13.4359 3.93198 15.0632 4.60653C16.6906 5.28107 18.0499 6.47392 18.93 7.99994" stroke="#36338C" stroke-linecap="round" stroke-linejoin="round"/>
<path d="M14 8H19V3" stroke="#36338C" stroke-linecap="round" stroke-linejoin="round"/>
<path d="M20.0001 12C20.0008 13.7616 19.4199 15.4743 18.3478 16.8721C17.2756 18.2699 15.772 19.2747 14.0704 19.7306C12.3688 20.1865 10.5642 20.068 8.93683 19.3934C7.30944 18.7189 5.95021 17.526 5.07007 16" stroke="#36338C" stroke-linecap="round" stroke-linejoin="round"/>
<path d="M10 16H5V21" stroke="#36338C" stroke-linecap="round" stroke-linejoin="round"/>
</svg>
