<svg width="20" height="20" viewBox="0 0 20 20" fill="none" xmlns="http://www.w3.org/2000/svg">
<path fill-rule="evenodd" clip-rule="evenodd" d="M17.1548 1.66667H11.6667V0H20V8.33333H18.3333V2.84514L8.92255 12.2559L7.74404 11.0774L17.1548 1.66667ZM0 4.16667C0 3.24619 0.746193 2.5 1.66667 2.5H7.91667C8.3769 2.5 8.75 2.8731 8.75 3.33333C8.75 3.79357 8.3769 4.16667 7.91667 4.16667H3.66667C2.5621 4.16667 1.66667 5.0621 1.66667 6.16667V16.3333C1.66667 17.4379 2.5621 18.3333 3.66667 18.3333H13.8333C14.9379 18.3333 15.8333 17.4379 15.8333 16.3333V12.0833C15.8333 11.6231 16.2064 11.25 16.6667 11.25C17.1269 11.25 17.5 11.6231 17.5 12.0833V18.3333C17.5 19.2538 16.7538 20 15.8333 20H1.66667C0.746191 20 0 19.2538 0 18.3333V4.16667Z" fill="white"/>
</svg>
