<svg width="20" height="20" viewBox="0 0 20 20" fill="none" xmlns="http://www.w3.org/2000/svg">
<path id="Icon" d="M5 9C4.07003 9 3.60504 9 3.22354 9.10222C2.18827 9.37962 1.37962 10.1883 1.10222 11.2235C1 11.605 1 12.07 1 13V14.2C1 15.8802 1 16.7202 1.32698 17.362C1.6146 17.9265 2.07354 18.3854 2.63803 18.673C3.27976 19 4.11984 19 5.8 19H14.2C15.8802 19 16.7202 19 17.362 18.673C17.9265 18.3854 18.3854 17.9265 18.673 17.362C19 16.7202 19 15.8802 19 14.2V13C19 12.07 19 11.605 18.8978 11.2235C18.6204 10.1883 17.8117 9.37962 16.7765 9.10222C16.395 9 15.93 9 15 9M14 5L10 1M10 1L6 5M10 1V13" stroke="#36338C" stroke-linecap="round" stroke-linejoin="round"/>
</svg>
