<svg width="20" height="20" viewBox="0 0 20 20" fill="none" xmlns="http://www.w3.org/2000/svg">
<path id="Icon" d="M9.28265 1.83735C9.51314 1.37041 9.62838 1.13694 9.78483 1.06235C9.92095 0.997447 10.0791 0.997447 10.2152 1.06235C10.3717 1.13694 10.4869 1.37041 10.7174 1.83735L12.9041 6.26732C12.9721 6.40517 13.0061 6.47409 13.0558 6.52761C13.0999 6.57499 13.1527 6.61338 13.2113 6.64065C13.2776 6.67146 13.3536 6.68257 13.5057 6.70481L18.397 7.41974C18.9121 7.49502 19.1696 7.53267 19.2888 7.65847C19.3925 7.76792 19.4412 7.91833 19.4215 8.06781C19.3988 8.23961 19.2124 8.42121 18.8395 8.78441L15.3014 12.2305C15.1912 12.3379 15.136 12.3916 15.1004 12.4555C15.0689 12.5121 15.0487 12.5742 15.0409 12.6385C15.0321 12.7112 15.0451 12.787 15.0711 12.9388L15.906 17.8061C15.994 18.3195 16.038 18.5762 15.9553 18.7285C15.8833 18.8611 15.7554 18.954 15.6071 18.9815C15.4366 19.0131 15.2061 18.8919 14.7451 18.6494L10.3724 16.3499C10.2361 16.2782 10.168 16.2424 10.0962 16.2283C10.0327 16.2159 9.96734 16.2159 9.90379 16.2283C9.83202 16.2424 9.7639 16.2782 9.62766 16.3499L5.25492 18.6494C4.79392 18.8919 4.56341 19.0131 4.39297 18.9815C4.24468 18.954 4.11672 18.8611 4.04474 18.7285C3.962 18.5762 4.00603 18.3195 4.09407 17.8061L4.92889 12.9388C4.95491 12.787 4.96793 12.7112 4.95912 12.6385C4.95132 12.5742 4.93111 12.5121 4.89961 12.4555C4.86402 12.3916 4.80888 12.3379 4.69859 12.2305L1.16056 8.78441C0.787663 8.42121 0.601215 8.23961 0.578526 8.06781C0.558786 7.91833 0.607554 7.76792 0.711251 7.65847C0.830435 7.53267 1.08797 7.49502 1.60304 7.41974L6.49431 6.70481C6.64642 6.68257 6.72248 6.67146 6.78872 6.64065C6.84736 6.61338 6.90016 6.57499 6.94419 6.52761C6.99391 6.47409 7.02793 6.40517 7.09597 6.26732L9.28265 1.83735Z" fill="white" stroke="#36338C" stroke-linecap="round" stroke-linejoin="round"/>
</svg>
