<svg width="20" height="20" viewBox="0 0 20 20" fill="none" xmlns="http://www.w3.org/2000/svg">
<g id="Group 12771">
<path id="Icon" d="M9.29013 1.80778C9.51982 1.36568 9.63466 1.14463 9.78859 1.07279C9.92262 1.01024 10.0775 1.01024 10.2115 1.07279C10.3654 1.14463 10.4803 1.36568 10.71 1.80778L12.223 4.72006C12.322 4.91075 12.3716 5.00609 12.4459 5.06943C12.5115 5.12535 12.5904 5.16336 12.675 5.17978C12.7709 5.19838 12.8763 5.17766 13.0871 5.13622L16.3074 4.50337C16.7963 4.40731 17.0407 4.35927 17.1928 4.43482C17.3253 4.50061 17.4218 4.62168 17.4565 4.76547C17.4963 4.9306 17.3951 5.15821 17.1927 5.61343L15.8591 8.61214C15.7718 8.80849 15.7281 8.90666 15.7249 9.00425C15.7221 9.09039 15.7416 9.1758 15.7815 9.25219C15.8267 9.33872 15.9087 9.40823 16.0725 9.54725L18.5751 11.6704C18.955 11.9927 19.145 12.1538 19.1808 12.3199C19.2119 12.4645 19.1775 12.6154 19.0866 12.7322C18.9824 12.8663 18.7413 12.9291 18.2592 13.0546L15.0832 13.8816C14.8753 13.9358 14.7713 13.9629 14.693 14.0212C14.6239 14.0727 14.5693 14.1412 14.5345 14.2201C14.495 14.3094 14.4917 14.4168 14.4852 14.6315L14.3856 17.9119C14.3705 18.4099 14.3629 18.6589 14.2554 18.7904C14.1618 18.9049 14.0223 18.9721 13.8744 18.9739C13.7045 18.9759 13.5052 18.8266 13.1064 18.5279L10.4796 16.5605C10.3076 16.4317 10.2216 16.3673 10.1272 16.3425C10.0438 16.3206 9.95624 16.3206 9.87289 16.3425C9.77846 16.3673 9.69246 16.4317 9.52046 16.5605L6.89369 18.5279C6.49493 18.8266 6.29555 18.9759 6.1257 18.9739C5.9778 18.9721 5.83828 18.9049 5.74467 18.7904C5.63715 18.6589 5.62959 18.4099 5.61447 17.9119L5.51488 14.6315C5.50836 14.4168 5.5051 14.3094 5.46563 14.2201C5.4308 14.1412 5.37618 14.0727 5.30707 14.0212C5.22878 13.9629 5.1248 13.9358 4.91685 13.8816L1.74091 13.0546C1.25879 12.9291 1.01773 12.8663 0.913438 12.7322C0.822628 12.6154 0.788171 12.4645 0.819331 12.3199C0.855115 12.1538 1.04507 11.9927 1.42497 11.6704L3.92755 9.54725C4.09142 9.40823 4.17335 9.33872 4.21857 9.25219C4.25849 9.1758 4.27798 9.09039 4.27516 9.00425C4.27196 8.90666 4.2283 8.80849 4.14099 8.61214L2.80743 5.61343C2.60499 5.15821 2.50377 4.9306 2.54358 4.76547C2.57824 4.62168 2.67478 4.50061 2.80726 4.43482C2.95939 4.35927 3.20382 4.40731 3.69267 4.50337L6.91294 5.13622C7.12379 5.17766 7.22922 5.19838 7.32507 5.17978C7.40968 5.16336 7.48861 5.12535 7.5542 5.06943C7.62851 5.00609 7.67804 4.91075 7.77711 4.72006L9.29013 1.80778Z" fill="white" stroke="#36338C" stroke-linecap="round" stroke-linejoin="round"/>
<path id="Icon_2" d="M6.80811 10.5259L8.80811 12.5259L13.3081 8.02588" stroke="#36338C" stroke-linecap="round" stroke-linejoin="round"/>
</g>
</svg>
